<svg width="136" height="50" viewBox="0 0 136 50" fill="none" xmlns="http://www.w3.org/2000/svg">
<path d="M33.266 1.86948L45.5366 23.0741C46.2057 24.2307 46.2057 25.6555 45.5366 26.8121L33.266 48.0167C32.5968 49.1733 31.36 49.8857 30.0215 49.8857H37.2123C38.5508 49.8857 39.7876 49.1733 40.4568 48.0167L52.7274 26.8121C53.3965 25.6555 53.3965 24.2307 52.7274 23.0741L40.4568 1.86948C39.7876 0.71291 38.5506 0.000488281 37.2123 0.000488281H30.0215C31.36 0.000488281 32.5968 0.71291 33.266 1.86948Z" fill="#39435A"/>
<path d="M33.266 1.86948L33.8127 2.81432C34.742 2.82788 35.7073 2.90404 36.6924 3.04853C38.6527 3.33624 40.4599 3.86066 42.0038 4.54329L40.4565 1.86948C39.7876 0.71291 38.5508 0.000488281 37.2123 0.000488281H30.0215C31.36 0.000488281 32.5968 0.71291 33.266 1.86948Z" fill="#2C374C"/>
<path d="M19.4237 1.86948L31.6943 23.0741C32.3635 24.2307 32.3635 25.6555 31.6943 26.8121L19.4237 48.0167C18.7546 49.1733 17.5177 49.8857 16.1792 49.8857H23.37C24.7085 49.8857 25.9454 49.1733 26.6145 48.0167L38.8851 26.8121C39.5542 25.6555 39.5542 24.2307 38.8851 23.0741L26.6145 1.86948C25.9452 0.71291 24.7084 0.000488281 23.3698 0.000488281H16.1792C17.5176 0.000488281 18.7544 0.71291 19.4237 1.86948Z" fill="#39435A"/>
<path d="M19.9632 48.0162L7.69268 26.8116C7.0235 25.655 7.0235 24.2302 7.69268 23.0736L19.9632 1.86899C20.6324 0.712421 21.8692 0 23.2077 0H16.017C14.6784 0 13.4416 0.712421 12.7724 1.86899L0.501886 23.0736C-0.167295 24.2302 -0.167295 25.655 0.501886 26.8116L12.7724 48.0162C13.4416 49.1728 14.6784 49.8852 16.017 49.8852H23.2077C21.8692 49.8852 20.6324 49.1728 19.9632 48.0162Z" fill="#435F94"/>
<path d="M27.0526 48.0164L14.782 26.8117C14.1129 25.6552 14.1129 24.2303 14.782 23.0738L27.0526 1.86912C27.7218 0.71291 28.9586 0.000488281 30.2971 0.000488281H23.1063C21.7678 0.000488281 20.531 0.71291 19.8618 1.86948L7.59124 23.0741C6.92206 24.2307 6.92206 25.6555 7.59124 26.8121L19.8618 48.0167C20.531 49.1733 21.7678 49.8857 23.1063 49.8857H30.2971C28.9586 49.8854 27.7218 49.1729 27.0526 48.0164Z" fill="#377DFF"/>
<path d="M34.2789 48.0164L22.0084 26.8117C21.3392 25.6552 21.3392 24.2303 22.0084 23.0738L34.2789 1.86912C34.9481 0.71291 36.1849 0.000488281 37.5234 0.000488281H30.3326C28.9941 0.000488281 27.7573 0.71291 27.0881 1.86948L14.8176 23.0741C14.1484 24.2307 14.1484 25.6555 14.8176 26.8121L27.0881 48.0167C27.7573 49.1733 28.9941 49.8857 30.3326 49.8857H37.5234C36.1849 49.8854 34.9481 49.1729 34.2789 48.0164Z" fill="#37DBFF"/>
<path d="M70.64 9.14L66.32 19.3C66.2267 19.5533 66.08 19.7533 65.88 19.9C65.6933 20.0333 65.4867 20.1 65.26 20.1C64.9 20.1 64.6333 20 64.46 19.8C64.2867 19.6 64.2 19.3533 64.2 19.06C64.2 18.94 64.22 18.8133 64.26 18.68L69.24 6.72C69.3467 6.45333 69.5067 6.24667 69.72 6.1C69.9467 5.95333 70.1867 5.89333 70.44 5.92C70.68 5.92 70.9 5.99333 71.1 6.14C71.3133 6.27333 71.4667 6.46667 71.56 6.72L76.48 18.44C76.5467 18.6133 76.58 18.7733 76.58 18.92C76.58 19.28 76.46 19.5667 76.22 19.78C75.9933 19.9933 75.74 20.1 75.46 20.1C75.22 20.1 75 20.0267 74.8 19.88C74.6133 19.7333 74.4667 19.5333 74.36 19.28L70.06 9.26L70.64 9.14ZM66.94 16.86L68.04 14.56H73.44L73.82 16.86H66.94ZM82.7134 9.1C83.2734 9.1 83.7868 9.18667 84.2534 9.36C84.7201 9.53333 85.1201 9.75333 85.4534 10.02C85.8001 10.2867 86.0668 10.56 86.2534 10.84C86.4534 11.1067 86.5534 11.3333 86.5534 11.52L86.0334 11.78V10.32C86.0334 9.97333 86.1468 9.68667 86.3734 9.46C86.6001 9.22 86.8868 9.1 87.2334 9.1C87.5801 9.1 87.8668 9.21333 88.0934 9.44C88.3201 9.66667 88.4334 9.96 88.4334 10.32V19.22C88.4334 20.38 88.1801 21.3067 87.6734 22C87.1801 22.7067 86.5268 23.2133 85.7134 23.52C84.9001 23.84 84.0268 24 83.0934 24C82.8268 24 82.4801 23.9667 82.0534 23.9C81.6268 23.8333 81.2201 23.7533 80.8334 23.66C80.4468 23.5667 80.1534 23.48 79.9534 23.4C79.5534 23.2267 79.2734 23.0067 79.1134 22.74C78.9668 22.4867 78.9401 22.2133 79.0334 21.92C79.1534 21.5333 79.3468 21.2667 79.6134 21.12C79.8801 20.9867 80.1601 20.9733 80.4534 21.08C80.5868 21.12 80.8068 21.2 81.1134 21.32C81.4201 21.44 81.7534 21.5467 82.1134 21.64C82.4868 21.7467 82.8134 21.8 83.0934 21.8C84.0934 21.8 84.8334 21.6 85.3134 21.2C85.7934 20.8 86.0334 20.2467 86.0334 19.54V17.8L86.2734 17.98C86.2734 18.1533 86.1801 18.3667 85.9934 18.62C85.8201 18.86 85.5734 19.1 85.2534 19.34C84.9468 19.58 84.5801 19.7867 84.1534 19.96C83.7268 20.12 83.2734 20.2 82.7934 20.2C81.8468 20.2 80.9934 19.9667 80.2334 19.5C79.4734 19.02 78.8734 18.3667 78.4334 17.54C77.9934 16.7 77.7734 15.74 77.7734 14.66C77.7734 13.5667 77.9934 12.6067 78.4334 11.78C78.8734 10.94 79.4668 10.2867 80.2134 9.82C80.9601 9.34 81.7934 9.1 82.7134 9.1ZM83.0934 11.3C82.4934 11.3 81.9668 11.4467 81.5134 11.74C81.0601 12.0333 80.7068 12.4333 80.4534 12.94C80.2001 13.4467 80.0734 14.02 80.0734 14.66C80.0734 15.2867 80.2001 15.8533 80.4534 16.36C80.7068 16.8667 81.0601 17.2667 81.5134 17.56C81.9668 17.8533 82.4934 18 83.0934 18C83.7068 18 84.2401 17.8533 84.6934 17.56C85.1468 17.2667 85.5001 16.8667 85.7534 16.36C86.0068 15.8533 86.1334 15.2867 86.1334 14.66C86.1334 14.02 86.0068 13.4467 85.7534 12.94C85.5001 12.4333 85.1468 12.0333 84.6934 11.74C84.2401 11.4467 83.7068 11.3 83.0934 11.3ZM95.8767 20.2C94.7434 20.2 93.7567 19.9667 92.9167 19.5C92.0901 19.02 91.4501 18.3733 90.9967 17.56C90.5567 16.7467 90.3367 15.8267 90.3367 14.8C90.3367 13.6 90.5767 12.58 91.0567 11.74C91.5501 10.8867 92.1901 10.2333 92.9767 9.78C93.7634 9.32667 94.5967 9.1 95.4767 9.1C96.1567 9.1 96.7967 9.24 97.3967 9.52C98.0101 9.8 98.5501 10.1867 99.0167 10.68C99.4834 11.16 99.8501 11.72 100.117 12.36C100.397 13 100.537 13.68 100.537 14.4C100.523 14.72 100.397 14.98 100.157 15.18C99.9167 15.38 99.6367 15.48 99.3167 15.48H91.6767L91.0767 13.48H98.4167L97.9767 13.88V13.34C97.9501 12.9533 97.8101 12.6067 97.5567 12.3C97.3167 11.9933 97.0101 11.7533 96.6367 11.58C96.2767 11.3933 95.8901 11.3 95.4767 11.3C95.0767 11.3 94.7034 11.3533 94.3567 11.46C94.0101 11.5667 93.7101 11.7467 93.4567 12C93.2034 12.2533 93.0034 12.5933 92.8567 13.02C92.7101 13.4467 92.6367 13.9867 92.6367 14.64C92.6367 15.36 92.7834 15.9733 93.0767 16.48C93.3834 16.9733 93.7701 17.3533 94.2367 17.62C94.7167 17.8733 95.2234 18 95.7567 18C96.2501 18 96.6434 17.96 96.9367 17.88C97.2301 17.8 97.4634 17.7067 97.6367 17.6C97.8234 17.48 97.9901 17.38 98.1367 17.3C98.3767 17.18 98.6034 17.12 98.8167 17.12C99.1101 17.12 99.3501 17.22 99.5367 17.42C99.7367 17.62 99.8367 17.8533 99.8367 18.12C99.8367 18.48 99.6501 18.8067 99.2767 19.1C98.9301 19.3933 98.4434 19.6533 97.8167 19.88C97.1901 20.0933 96.5434 20.2 95.8767 20.2ZM108.554 9.1C109.54 9.1 110.287 9.30667 110.794 9.72C111.314 10.1333 111.667 10.6867 111.854 11.38C112.054 12.06 112.154 12.82 112.154 13.66V18.78C112.154 19.1267 112.04 19.42 111.814 19.66C111.587 19.8867 111.3 20 110.954 20C110.607 20 110.32 19.8867 110.094 19.66C109.867 19.42 109.754 19.1267 109.754 18.78V13.66C109.754 13.22 109.694 12.8267 109.574 12.48C109.467 12.12 109.267 11.8333 108.974 11.62C108.68 11.4067 108.26 11.3 107.714 11.3C107.18 11.3 106.727 11.4067 106.354 11.62C105.994 11.8333 105.714 12.12 105.514 12.48C105.327 12.8267 105.234 13.22 105.234 13.66V18.78C105.234 19.1267 105.12 19.42 104.894 19.66C104.667 19.8867 104.38 20 104.034 20C103.687 20 103.4 19.8867 103.174 19.66C102.947 19.42 102.834 19.1267 102.834 18.78V10.52C102.834 10.1733 102.947 9.88667 103.174 9.66C103.4 9.42 103.687 9.3 104.034 9.3C104.38 9.3 104.667 9.42 104.894 9.66C105.12 9.88667 105.234 10.1733 105.234 10.52V11.38L104.934 11.32C105.054 11.0933 105.227 10.8533 105.454 10.6C105.68 10.3333 105.947 10.0867 106.254 9.86C106.56 9.63333 106.907 9.45333 107.294 9.32C107.68 9.17333 108.1 9.1 108.554 9.1ZM119.708 9.1C120.468 9.1 121.128 9.18 121.688 9.34C122.261 9.5 122.701 9.72667 123.008 10.02C123.328 10.3 123.488 10.64 123.488 11.04C123.488 11.3067 123.408 11.56 123.248 11.8C123.088 12.0267 122.854 12.14 122.548 12.14C122.334 12.14 122.154 12.1133 122.008 12.06C121.874 11.9933 121.754 11.9133 121.648 11.82C121.541 11.7267 121.414 11.64 121.268 11.56C121.134 11.48 120.928 11.42 120.648 11.38C120.381 11.3267 120.181 11.3 120.048 11.3C119.368 11.3 118.788 11.4467 118.308 11.74C117.841 12.0333 117.481 12.4333 117.228 12.94C116.974 13.4333 116.848 14.0067 116.848 14.66C116.848 15.3 116.974 15.8733 117.228 16.38C117.494 16.8733 117.854 17.2667 118.308 17.56C118.774 17.8533 119.308 18 119.908 18C120.241 18 120.528 17.98 120.768 17.94C121.008 17.9 121.208 17.84 121.368 17.76C121.554 17.6533 121.721 17.54 121.868 17.42C122.014 17.3 122.234 17.24 122.528 17.24C122.874 17.24 123.141 17.3533 123.328 17.58C123.514 17.7933 123.608 18.06 123.608 18.38C123.608 18.7133 123.421 19.02 123.048 19.3C122.674 19.5667 122.181 19.7867 121.568 19.96C120.968 20.12 120.314 20.2 119.608 20.2C118.554 20.2 117.641 19.96 116.868 19.48C116.094 18.9867 115.494 18.32 115.068 17.48C114.654 16.64 114.448 15.7 114.448 14.66C114.448 13.5667 114.668 12.6067 115.108 11.78C115.561 10.94 116.181 10.2867 116.968 9.82C117.768 9.34 118.681 9.1 119.708 9.1ZM133.478 9.3C133.825 9.3 134.112 9.42 134.338 9.66C134.565 9.88667 134.678 10.1733 134.678 10.52V19.02C134.678 20.2467 134.445 21.22 133.978 21.94C133.525 22.6733 132.912 23.2 132.138 23.52C131.365 23.84 130.498 24 129.538 24C129.112 24 128.658 23.9667 128.178 23.9C127.698 23.8333 127.305 23.7333 126.998 23.6C126.598 23.4267 126.318 23.2067 126.158 22.94C126.012 22.6867 125.985 22.4133 126.078 22.12C126.198 21.7333 126.392 21.4667 126.658 21.32C126.925 21.1867 127.205 21.1733 127.498 21.28C127.712 21.3467 127.992 21.4467 128.338 21.58C128.685 21.7267 129.085 21.8 129.538 21.8C130.152 21.8 130.658 21.7133 131.058 21.54C131.472 21.38 131.778 21.1 131.978 20.7C132.192 20.3133 132.298 19.78 132.298 19.1V17.76L132.718 18.24C132.492 18.68 132.205 19.0467 131.858 19.34C131.525 19.62 131.125 19.8333 130.658 19.98C130.192 20.1267 129.658 20.2 129.058 20.2C128.352 20.2 127.732 20.04 127.198 19.72C126.678 19.3867 126.272 18.9333 125.978 18.36C125.685 17.7733 125.538 17.1067 125.538 16.36V10.52C125.538 10.1733 125.652 9.88667 125.878 9.66C126.105 9.42 126.392 9.3 126.738 9.3C127.085 9.3 127.372 9.42 127.598 9.66C127.825 9.88667 127.938 10.1733 127.938 10.52V15.64C127.938 16.5067 128.125 17.12 128.498 17.48C128.885 17.8267 129.418 18 130.098 18C130.565 18 130.958 17.9133 131.278 17.74C131.598 17.5533 131.845 17.2867 132.018 16.94C132.192 16.58 132.278 16.1467 132.278 15.64V10.52C132.278 10.1733 132.392 9.88667 132.618 9.66C132.845 9.42 133.132 9.3 133.478 9.3Z" fill="#1D1D1D"/>
<path d="M73.68 33.568C73.808 33.6534 73.8827 33.7654 73.904 33.904C73.9253 34.032 73.8933 34.16 73.808 34.288C73.7333 34.384 73.6373 34.4374 73.52 34.448C73.4027 34.4587 73.2907 34.4374 73.184 34.384C72.7787 34.1174 72.3413 33.9094 71.872 33.76C71.4133 33.6107 70.9173 33.536 70.384 33.536C69.7333 33.536 69.1253 33.6534 68.56 33.888C68.0053 34.112 67.52 34.4427 67.104 34.88C66.688 35.3067 66.3627 35.8134 66.128 36.4C65.904 36.9867 65.792 37.632 65.792 38.336C65.792 39.0614 65.9093 39.7227 66.144 40.32C66.3787 40.9067 66.704 41.4134 67.12 41.84C67.5467 42.2667 68.0373 42.592 68.592 42.816C69.1467 43.04 69.744 43.152 70.384 43.152C70.9067 43.152 71.3973 43.0774 71.856 42.928C72.3253 42.7787 72.7627 42.576 73.168 42.32C73.2747 42.256 73.3867 42.2347 73.504 42.256C73.632 42.2667 73.7333 42.3254 73.808 42.432C73.904 42.5494 73.936 42.6774 73.904 42.816C73.8827 42.944 73.8133 43.0454 73.696 43.12C73.4293 43.2907 73.1147 43.4507 72.752 43.6C72.3893 43.7494 72.0053 43.8667 71.6 43.952C71.1947 44.048 70.7893 44.096 70.384 44.096C69.616 44.096 68.896 43.9574 68.224 43.68C67.552 43.4027 66.9547 43.0134 66.432 42.512C65.9093 42 65.4987 41.392 65.2 40.688C64.912 39.984 64.768 39.2 64.768 38.336C64.768 37.504 64.912 36.7414 65.2 36.048C65.488 35.344 65.888 34.736 66.4 34.224C66.912 33.712 67.5093 33.312 68.192 33.024C68.8747 32.736 69.6053 32.592 70.384 32.592C70.992 32.592 71.5787 32.6774 72.144 32.848C72.7093 33.0187 73.2213 33.2587 73.68 33.568ZM76.3571 43.936C76.2078 43.936 76.0905 43.888 76.0051 43.792C75.9198 43.696 75.8771 43.584 75.8771 43.456V36.288C75.8771 36.16 75.9198 36.048 76.0051 35.952C76.1011 35.856 76.2185 35.808 76.3571 35.808C76.4958 35.808 76.6078 35.856 76.6931 35.952C76.7891 36.048 76.8371 36.16 76.8371 36.288V38.688L76.5971 38.736C76.6291 38.3627 76.7198 37.9947 76.8691 37.632C77.0291 37.2587 77.2425 36.9174 77.5091 36.608C77.7758 36.2987 78.0905 36.048 78.4531 35.856C78.8265 35.664 79.2425 35.568 79.7011 35.568C79.8931 35.568 80.0798 35.6107 80.2611 35.696C80.4425 35.7707 80.5331 35.8987 80.5331 36.08C80.5331 36.24 80.4905 36.3627 80.4051 36.448C80.3198 36.5334 80.2185 36.576 80.1011 36.576C80.0051 36.576 79.8985 36.5494 79.7811 36.496C79.6745 36.4427 79.5305 36.416 79.3491 36.416C79.0505 36.416 78.7518 36.5067 78.4531 36.688C78.1545 36.8587 77.8825 37.0934 77.6371 37.392C77.3918 37.6907 77.1945 38.0267 77.0451 38.4C76.9065 38.7627 76.8371 39.1307 76.8371 39.504V43.456C76.8371 43.584 76.7891 43.696 76.6931 43.792C76.5971 43.888 76.4851 43.936 76.3571 43.936ZM85.53 44.096C84.7087 44.096 83.9833 43.92 83.354 43.568C82.7247 43.216 82.234 42.7254 81.882 42.096C81.53 41.4667 81.354 40.7307 81.354 39.888C81.354 38.9814 81.53 38.208 81.882 37.568C82.2447 36.928 82.7087 36.4374 83.274 36.096C83.85 35.744 84.458 35.568 85.098 35.568C85.5673 35.568 86.0207 35.6534 86.458 35.824C86.906 35.984 87.3007 36.2294 87.642 36.56C87.994 36.88 88.2713 37.2747 88.474 37.744C88.6873 38.2134 88.8047 38.7574 88.826 39.376C88.8153 39.504 88.762 39.616 88.666 39.712C88.57 39.7974 88.458 39.84 88.33 39.84H81.914L81.722 38.976H88.026L87.818 39.168V38.848C87.7753 38.3467 87.6153 37.92 87.338 37.568C87.0607 37.216 86.7247 36.9494 86.33 36.768C85.9353 36.5867 85.5247 36.496 85.098 36.496C84.778 36.496 84.4473 36.56 84.106 36.688C83.7753 36.816 83.4713 37.0187 83.194 37.296C82.9273 37.5627 82.7087 37.9094 82.538 38.336C82.3673 38.752 82.282 39.248 82.282 39.824C82.282 40.4534 82.41 41.024 82.666 41.536C82.922 42.048 83.29 42.4534 83.77 42.752C84.2607 43.0507 84.842 43.2 85.514 43.2C85.8873 43.2 86.2233 43.1467 86.522 43.04C86.8207 42.9334 87.082 42.7947 87.306 42.624C87.53 42.4427 87.7167 42.256 87.866 42.064C87.9833 41.968 88.1007 41.92 88.218 41.92C88.3247 41.92 88.4153 41.9627 88.49 42.048C88.5753 42.1334 88.618 42.2294 88.618 42.336C88.618 42.464 88.5647 42.576 88.458 42.672C88.138 43.056 87.722 43.392 87.21 43.68C86.698 43.9574 86.138 44.096 85.53 44.096ZM97.8074 35.76C97.946 35.76 98.058 35.808 98.1434 35.904C98.2394 36 98.2874 36.1174 98.2874 36.256V43.456C98.2874 43.584 98.2394 43.696 98.1434 43.792C98.0474 43.888 97.9354 43.936 97.8074 43.936C97.6687 43.936 97.5514 43.888 97.4554 43.792C97.37 43.696 97.3274 43.584 97.3274 43.456V41.552L97.5994 41.424C97.5994 41.7227 97.514 42.0267 97.3434 42.336C97.1834 42.6454 96.9594 42.9334 96.6714 43.2C96.3834 43.4667 96.042 43.6854 95.6474 43.856C95.2634 44.016 94.8474 44.096 94.3994 44.096C93.674 44.096 93.0234 43.9094 92.4474 43.536C91.882 43.1627 91.434 42.6507 91.1034 42C90.7834 41.3494 90.6234 40.6187 90.6234 39.808C90.6234 38.976 90.7887 38.2454 91.1194 37.616C91.45 36.976 91.898 36.4747 92.4634 36.112C93.0287 35.7494 93.6687 35.568 94.3834 35.568C94.842 35.568 95.2687 35.648 95.6634 35.808C96.0687 35.968 96.4207 36.1867 96.7194 36.464C97.018 36.7414 97.2474 37.0614 97.4074 37.424C97.578 37.776 97.6634 38.144 97.6634 38.528L97.3274 38.288V36.256C97.3274 36.1174 97.37 36 97.4554 35.904C97.5514 35.808 97.6687 35.76 97.8074 35.76ZM94.4794 43.2C95.0447 43.2 95.546 43.056 95.9834 42.768C96.4207 42.4694 96.762 42.064 97.0074 41.552C97.2634 41.0294 97.3914 40.448 97.3914 39.808C97.3914 39.1787 97.2634 38.6134 97.0074 38.112C96.762 37.6107 96.4207 37.2107 95.9834 36.912C95.546 36.6134 95.0447 36.464 94.4794 36.464C93.9247 36.464 93.4234 36.608 92.9754 36.896C92.538 37.184 92.1914 37.5787 91.9354 38.08C91.69 38.5814 91.5674 39.1574 91.5674 39.808C91.5674 40.448 91.69 41.0294 91.9354 41.552C92.1914 42.064 92.538 42.4694 92.9754 42.768C93.4127 43.056 93.914 43.2 94.4794 43.2ZM100.438 35.792H104.166C104.294 35.792 104.401 35.84 104.486 35.936C104.572 36.0214 104.614 36.128 104.614 36.256C104.614 36.3734 104.572 36.4747 104.486 36.56C104.401 36.6454 104.294 36.688 104.166 36.688H100.438C100.31 36.688 100.198 36.6454 100.102 36.56C100.017 36.464 99.9745 36.3574 99.9745 36.24C99.9745 36.112 100.017 36.0054 100.102 35.92C100.198 35.8347 100.31 35.792 100.438 35.792ZM102.086 33.536C102.225 33.536 102.337 33.584 102.422 33.68C102.518 33.776 102.566 33.888 102.566 34.016V42.048C102.566 42.3467 102.604 42.5707 102.678 42.72C102.764 42.8694 102.87 42.9707 102.998 43.024C103.126 43.0667 103.254 43.088 103.382 43.088C103.468 43.088 103.542 43.0774 103.606 43.056C103.681 43.024 103.761 43.008 103.846 43.008C103.942 43.008 104.022 43.0454 104.086 43.12C104.161 43.1947 104.198 43.2907 104.198 43.408C104.198 43.5574 104.113 43.6854 103.942 43.792C103.772 43.888 103.569 43.936 103.334 43.936C103.238 43.936 103.094 43.9307 102.902 43.92C102.71 43.8987 102.513 43.84 102.31 43.744C102.108 43.6374 101.937 43.456 101.798 43.2C101.67 42.944 101.606 42.576 101.606 42.096V34.016C101.606 33.888 101.649 33.776 101.734 33.68C101.83 33.584 101.948 33.536 102.086 33.536ZM107.476 43.456C107.476 43.584 107.428 43.696 107.332 43.792C107.236 43.888 107.124 43.936 106.996 43.936C106.858 43.936 106.74 43.888 106.644 43.792C106.559 43.696 106.516 43.584 106.516 43.456V36.096C106.516 35.968 106.559 35.856 106.644 35.76C106.74 35.664 106.858 35.616 106.996 35.616C107.135 35.616 107.247 35.664 107.332 35.76C107.428 35.856 107.476 35.968 107.476 36.096V43.456ZM106.996 34.544C106.772 34.544 106.602 34.496 106.484 34.4C106.378 34.2934 106.324 34.144 106.324 33.952V33.792C106.324 33.6 106.383 33.456 106.5 33.36C106.628 33.2534 106.799 33.2 107.012 33.2C107.215 33.2 107.37 33.2534 107.476 33.36C107.594 33.456 107.652 33.6 107.652 33.792V33.952C107.652 34.144 107.594 34.2934 107.476 34.4C107.37 34.496 107.21 34.544 106.996 34.544ZM109.938 35.584C110.024 35.584 110.109 35.6107 110.194 35.664C110.28 35.7174 110.344 35.7974 110.386 35.904L113.186 42.56L112.978 42.688L115.842 35.904C115.928 35.6907 116.082 35.5894 116.306 35.6C116.413 35.6 116.514 35.6374 116.61 35.712C116.706 35.776 116.754 35.872 116.754 36C116.754 36.064 116.744 36.1174 116.722 36.16C116.712 36.192 116.701 36.2294 116.69 36.272L113.554 43.632C113.469 43.824 113.325 43.9254 113.122 43.936C113.026 43.9467 112.93 43.9254 112.834 43.872C112.749 43.808 112.685 43.728 112.642 43.632L109.49 36.272C109.48 36.2507 109.469 36.2187 109.458 36.176C109.448 36.1334 109.442 36.0907 109.442 36.048C109.442 35.9307 109.485 35.824 109.57 35.728C109.656 35.632 109.778 35.584 109.938 35.584ZM122.377 44.096C121.556 44.096 120.83 43.92 120.201 43.568C119.572 43.216 119.081 42.7254 118.729 42.096C118.377 41.4667 118.201 40.7307 118.201 39.888C118.201 38.9814 118.377 38.208 118.729 37.568C119.092 36.928 119.556 36.4374 120.121 36.096C120.697 35.744 121.305 35.568 121.945 35.568C122.414 35.568 122.868 35.6534 123.305 35.824C123.753 35.984 124.148 36.2294 124.489 36.56C124.841 36.88 125.118 37.2747 125.321 37.744C125.534 38.2134 125.652 38.7574 125.673 39.376C125.662 39.504 125.609 39.616 125.513 39.712C125.417 39.7974 125.305 39.84 125.177 39.84H118.761L118.569 38.976H124.873L124.665 39.168V38.848C124.622 38.3467 124.462 37.92 124.185 37.568C123.908 37.216 123.572 36.9494 123.177 36.768C122.782 36.5867 122.372 36.496 121.945 36.496C121.625 36.496 121.294 36.56 120.953 36.688C120.622 36.816 120.318 37.0187 120.041 37.296C119.774 37.5627 119.556 37.9094 119.385 38.336C119.214 38.752 119.129 39.248 119.129 39.824C119.129 40.4534 119.257 41.024 119.513 41.536C119.769 42.048 120.137 42.4534 120.617 42.752C121.108 43.0507 121.689 43.2 122.361 43.2C122.734 43.2 123.07 43.1467 123.369 43.04C123.668 42.9334 123.929 42.7947 124.153 42.624C124.377 42.4427 124.564 42.256 124.713 42.064C124.83 41.968 124.948 41.92 125.065 41.92C125.172 41.92 125.262 41.9627 125.337 42.048C125.422 42.1334 125.465 42.2294 125.465 42.336C125.465 42.464 125.412 42.576 125.305 42.672C124.985 43.056 124.569 43.392 124.057 43.68C123.545 43.9574 122.985 44.096 122.377 44.096Z" fill="#1D1D1D"/>
</svg>
